;TYPE=PLATED
;Layer: PTH_Through
;EasyEDA Pro Client v2.2.37.7, 2025-06-16 05:36:05
;Gerber Generator version 0.3
M48
METRIC,LZ,0000.00000
;Hole size 1 = 0.30500 METRIC
T01C0.30500
;Hole size 2 = 1.10002 METRIC
T02C1.10002
%
G05
G90
T01
X49.53163Y-14.07165
X44.196Y-16.23946
X47.90845Y-14.05024
X42.4942Y-15.8496
X51.4604Y-10.8966
X39.0906Y-11.5316
X36.55314Y-10.81786
X37.56914Y-15.89786
X38.58514Y-3.70586
X38.58514Y-16.91386
X39.60114Y-3.70586
X39.60114Y-7.76986
X39.60114Y-16.91386
X40.61714Y-7.76986
X40.61714Y-3.70586
X40.61714Y-16.91386
X40.61714Y-15.89786
X40.61714Y-14.88186
X41.63314Y-9.80186
X41.63314Y-8.78586
X41.63314Y-7.76986
X41.63314Y-6.75386
X41.63314Y-5.73786
X41.63314Y-4.72186
X41.63314Y-3.70586
X41.63314Y-16.91386
X42.64914Y-7.76986
X42.64914Y-6.75386
X42.64914Y-16.91386
X43.66514Y-7.76986
X43.66514Y-6.75386
X44.68114Y-7.76986
X44.68114Y-6.75386
X45.69714Y-7.76986
X45.69714Y-6.75386
X45.69714Y-16.91386
X46.71314Y-8.78586
X46.71314Y-7.76986
X46.71314Y-6.75386
X46.71314Y-16.91386
X47.72914Y-8.78586
X47.72914Y-7.76986
X47.72914Y-6.75386
X47.72914Y-5.73786
X47.72914Y-16.91386
X48.74514Y-8.78586
X48.74514Y-7.76986
X48.74514Y-16.91386
X48.74514Y-15.89786
X49.76114Y-8.78586
X49.76114Y-7.76986
X49.76114Y-16.91386
X49.76114Y-15.89786
X50.77714Y-7.76986
X50.77714Y-16.91386
X50.77714Y-15.89786
X51.79314Y-16.91386
X51.79314Y-15.89786
X51.79314Y-14.88186
X51.79314Y-13.86586
X52.80914Y-12.84986
X53.82514Y-12.84986
X53.82514Y-11.83386
X53.82514Y-10.81786
X53.82514Y-9.80186
X53.82514Y-8.78586
X44.196Y-12.065
X46.17748Y-13.9909
X45.20436Y-14.12653
X44.2201Y-14.12654
T02
X36.449Y-3.937
X36.449Y-6.477
X53.594Y-3.937
X53.594Y-6.477
X36.449Y-14.478
X36.449Y-17.018
X53.594Y-14.478
X53.594Y-17.018
M30