G04 Layer: BottomLayer*
G04 EasyEDA Pro v2.2.37.7, 2025-06-16 05:36:05*
G04 Gerber Generator version 0.3*
G04 Scale: 100 percent, Rotated: No, Reflected: No*
G04 Dimensions in millimeters*
G04 Leading zeros omitted, absolute positions, 4 integers and 5 decimals*
%FSLAX45Y45*%
%MOMM*%
%ADD10C,0.2032*%
%ADD11C,1.8*%
%ADD12R,1.8X1.8*%
%ADD13C,0.61*%
%ADD14C,0.254*%
G75*


G04 Copper Start*
G36*
G01X5270436Y-482664D02*
G01X5287526Y-496963D01*
G01X5306871Y-508023D01*
G01X5327863Y-515497D01*
G01X5349845Y-519150D01*
G01X5372126Y-518869D01*
G01X5394008Y-514660D01*
G01X5414805Y-506658D01*
G01X5433863Y-495112D01*
G01X5450586Y-480385D01*
G01X5450586Y-521906D01*
G01X5449400Y-521886D01*
G01X5269400Y-521886D01*
G01X5258333Y-523639D01*
G01X5248349Y-528726D01*
G01X5240426Y-536649D01*
G01X5235339Y-546633D01*
G01X5233586Y-557700D01*
G01X5233586Y-737700D01*
G01X5235339Y-748767D01*
G01X5240426Y-758751D01*
G01X5248349Y-766674D01*
G01X5258333Y-771761D01*
G01X5269400Y-773514D01*
G01X5449400Y-773514D01*
G01X5450586Y-773494D01*
G01X5450586Y-1792986D01*
G01X3553714Y-1792986D01*
G01X3553714Y-1584960D01*
G01X4183106Y-1584960D01*
G01X4184818Y-1599933D01*
G01X4189867Y-1614132D01*
G01X4197992Y-1626825D01*
G01X4208772Y-1637356D01*
G01X4221652Y-1645180D01*
G01X4235966Y-1649895D01*
G01X4250975Y-1651256D01*
G01X4265903Y-1649193D01*
G01X4279980Y-1643813D01*
G01X4292479Y-1635393D01*
G01X4294887Y-1633474D01*
G01X4353974Y-1633474D01*
G01X4357580Y-1647422D01*
G01X4364114Y-1660262D01*
G01X4373266Y-1671388D01*
G01X4384605Y-1680274D01*
G01X4397596Y-1686503D01*
G01X4411625Y-1689779D01*
G01X4426031Y-1689947D01*
G01X4440133Y-1687001D01*
G01X4453266Y-1681079D01*
G01X4464810Y-1672460D01*
G01X4736382Y-1672460D01*
G01X4748938Y-1670807D01*
G01X4760639Y-1665960D01*
G01X4770687Y-1658250D01*
G01X4955317Y-1473620D01*
G01X4958377Y-1473274D01*
G01X4973168Y-1470389D01*
G01X4986927Y-1464240D01*
G01X4998942Y-1455143D01*
G01X5008592Y-1443567D01*
G01X5015380Y-1430112D01*
G01X5018954Y-1415472D01*
G01X5019131Y-1400403D01*
G01X5015901Y-1385683D01*
G01X5009430Y-1372072D01*
G01X5000054Y-1360274D01*
G01X4988256Y-1350898D01*
G01X4974645Y-1344427D01*
G01X4959925Y-1341197D01*
G01X4944856Y-1341373D01*
G01X4930215Y-1344948D01*
G01X4916760Y-1351736D01*
G01X4905185Y-1361386D01*
G01X4896088Y-1373401D01*
G01X4889938Y-1387159D01*
G01X4887054Y-1401951D01*
G01X4886708Y-1405010D01*
G01X4716287Y-1575432D01*
G01X4689046Y-1575432D01*
G01X4792999Y-1471478D01*
G01X4796059Y-1471133D01*
G01X4810850Y-1468248D01*
G01X4824609Y-1462099D01*
G01X4836624Y-1453001D01*
G01X4846274Y-1441426D01*
G01X4853062Y-1427971D01*
G01X4856636Y-1413331D01*
G01X4856813Y-1398261D01*
G01X4853583Y-1383541D01*
G01X4847112Y-1369931D01*
G01X4837736Y-1358133D01*
G01X4825937Y-1348756D01*
G01X4812327Y-1342286D01*
G01X4797607Y-1339055D01*
G01X4782537Y-1339232D01*
G01X4767897Y-1342807D01*
G01X4754442Y-1349595D01*
G01X4742867Y-1359245D01*
G01X4733770Y-1371260D01*
G01X4727620Y-1385018D01*
G01X4724736Y-1399810D01*
G01X4724390Y-1402869D01*
G01X4603513Y-1523746D01*
G01X4483300Y-1523746D01*
G01X4478095Y-1518541D01*
G01X4478095Y-1518541D01*
G01X4468047Y-1510831D01*
G01X4456346Y-1505985D01*
G01X4443790Y-1504332D01*
G01X4395410Y-1504332D01*
G01X4382854Y-1505985D01*
G01X4371153Y-1510831D01*
G01X4361105Y-1518541D01*
G01X4343200Y-1536446D01*
G01X4294887Y-1536446D01*
G01X4292479Y-1534527D01*
G01X4279980Y-1526107D01*
G01X4265903Y-1520727D01*
G01X4250975Y-1518664D01*
G01X4235966Y-1520025D01*
G01X4221652Y-1524740D01*
G01X4208772Y-1532564D01*
G01X4197992Y-1543095D01*
G01X4189867Y-1555788D01*
G01X4184818Y-1569987D01*
G01X4183106Y-1584960D01*
G01X3553714Y-1584960D01*
G01X3553714Y-1153160D01*
G01X3842746Y-1153160D01*
G01X3844524Y-1168413D01*
G01X3849763Y-1182849D01*
G01X3858182Y-1195692D01*
G01X3869329Y-1206254D01*
G01X3882607Y-1213970D01*
G01X3897304Y-1218424D01*
G01X3912631Y-1219378D01*
G01X3927766Y-1216781D01*
G01X3941899Y-1210772D01*
G01X3954270Y-1201674D01*
G01X4353462Y-1201674D01*
G01X4354206Y-1217509D01*
G01X4358687Y-1232715D01*
G01X4366650Y-1246423D01*
G01X4377638Y-1257849D01*
G01X4391024Y-1266341D01*
G01X4406043Y-1271413D01*
G01X4421837Y-1272776D01*
G01X4422863Y-1272814D01*
G01X4551294Y-1401245D01*
G01X4551294Y-1401245D01*
G01X4551639Y-1404304D01*
G01X4554524Y-1419096D01*
G01X4560673Y-1432854D01*
G01X4569770Y-1444869D01*
G01X4581345Y-1454519D01*
G01X4594801Y-1461307D01*
G01X4609441Y-1464882D01*
G01X4624510Y-1465058D01*
G01X4639230Y-1461828D01*
G01X4652841Y-1455358D01*
G01X4664639Y-1445981D01*
G01X4674015Y-1434183D01*
G01X4680486Y-1420573D01*
G01X4683716Y-1405853D01*
G01X4683540Y-1390783D01*
G01X4679965Y-1376143D01*
G01X4673178Y-1362688D01*
G01X4663527Y-1351113D01*
G01X4651513Y-1342015D01*
G01X4637754Y-1335866D01*
G01X4622963Y-1332981D01*
G01X4619903Y-1332635D01*
G01X4488941Y-1201674D01*
G01X5082540Y-1201674D01*
G01X5095096Y-1200021D01*
G01X5106797Y-1195174D01*
G01X5116845Y-1187465D01*
G01X5148376Y-1155933D01*
G01X5163558Y-1153619D01*
G01X5177799Y-1147874D01*
G01X5190338Y-1139008D01*
G01X5200501Y-1127496D01*
G01X5207744Y-1113954D01*
G01X5211677Y-1099110D01*
G01X5212091Y-1083759D01*
G01X5208962Y-1068724D01*
G01X5202460Y-1054812D01*
G01X5192931Y-1042769D01*
G01X5180888Y-1033240D01*
G01X5166976Y-1026738D01*
G01X5151941Y-1023609D01*
G01X5136590Y-1024023D01*
G01X5121746Y-1027956D01*
G01X5108204Y-1035199D01*
G01X5096692Y-1045362D01*
G01X5087826Y-1057901D01*
G01X5082081Y-1072142D01*
G01X5079767Y-1087324D01*
G01X5062445Y-1104646D01*
G01X4465363Y-1104646D01*
G01X4454869Y-1100868D01*
G01X4443790Y-1099586D01*
G01X4395410Y-1099586D01*
G01X4384331Y-1100868D01*
G01X4373837Y-1104646D01*
G01X3954270Y-1104646D01*
G01X3941899Y-1095548D01*
G01X3927766Y-1089539D01*
G01X3912631Y-1086942D01*
G01X3897304Y-1087896D01*
G01X3882607Y-1092350D01*
G01X3869329Y-1100066D01*
G01X3858182Y-1110628D01*
G01X3849763Y-1123471D01*
G01X3844524Y-1137907D01*
G01X3842746Y-1153160D01*
G01X3553714Y-1153160D01*
G01X3553714Y-773494D01*
G01X3554900Y-773514D01*
G01X3734900Y-773514D01*
G01X3745967Y-771761D01*
G01X3755951Y-766674D01*
G01X3763874Y-758751D01*
G01X3768961Y-748767D01*
G01X3770714Y-737700D01*
G01X3770714Y-557700D01*
G01X3768961Y-546633D01*
G01X3763874Y-536649D01*
G01X3755951Y-528726D01*
G01X3745967Y-523639D01*
G01X3734900Y-521886D01*
G01X3554900Y-521886D01*
G01X3553714Y-521906D01*
G01X3553714Y-480385D01*
G01X3570437Y-495112D01*
G01X3589495Y-506658D01*
G01X3610292Y-514660D01*
G01X3632174Y-518869D01*
G01X3654455Y-519150D01*
G01X3676437Y-515497D01*
G01X3697429Y-508023D01*
G01X3716774Y-496963D01*
G01X3733864Y-482664D01*
G01X3748163Y-465574D01*
G01X3759223Y-446229D01*
G01X3766697Y-425237D01*
G01X3770350Y-403255D01*
G01X3770069Y-380974D01*
G01X3765860Y-359092D01*
G01X3757858Y-338295D01*
G01X3746312Y-319237D01*
G01X3731585Y-302514D01*
G01X5272715Y-302514D01*
G01X5257988Y-319237D01*
G01X5246442Y-338295D01*
G01X5238440Y-359092D01*
G01X5234231Y-380974D01*
G01X5233950Y-403255D01*
G01X5237603Y-425237D01*
G01X5245077Y-446229D01*
G01X5256137Y-465574D01*
G01X5270436Y-482664D01*
G37*
G54D10*
G01X5270436Y-482664D02*
G03X5450586Y-480385I88964J88964D01*
G01X5450586Y-521906D01*
G01X5449400Y-521886D01*
G01X5269400Y-521886D01*
G03X5233586Y-557700I0J-35814D01*
G01X5233586Y-737700D01*
G03X5269400Y-773514I35814J0D01*
G01X5449400Y-773514D01*
G01X5450586Y-773494D01*
G01X5450586Y-1792986D01*
G01X3553714Y-1792986D01*
G01X3553714Y-773494D01*
G01X3554900Y-773514D01*
G01X3734900Y-773514D01*
G03X3770714Y-737700I0J35814D01*
G01X3770714Y-557700D01*
G03X3734900Y-521886I-35814J0D01*
G01X3554900Y-521886D01*
G01X3553714Y-521906D01*
G01X3553714Y-480385D01*
G03X3733864Y-482664I91186J86685D01*
G03X3731585Y-302514I-88964J88964D01*
G01X5272715Y-302514D01*
G03X5270436Y-482664I86685J-91186D01*
G01X4551294Y-1401245D02*
G01X4551639Y-1404304D01*
G03X4664639Y-1445981I66109J5214D01*
G03X4622963Y-1332981I-46891J46891D01*
G01X4619903Y-1332635D01*
G01X4488941Y-1201674D01*
G01X5082540Y-1201674D01*
G03X5116845Y-1187465I0J48514D01*
G01X5148376Y-1155933D01*
G03X5192931Y-1042769I-2336J66273D01*
G03X5079767Y-1087324I-46891J-46891D01*
G01X5062445Y-1104646D01*
G01X4465363Y-1104646D01*
G03X4443790Y-1099586I-21573J-43454D01*
G01X4395410Y-1099586D01*
G03X4373837Y-1104646I0J-48514D01*
G01X3954270Y-1104646D01*
G03X3842746Y-1153160I-45210J-48514D01*
G03X3954270Y-1201674I66314J0D01*
G01X4353462Y-1201674D01*
G03X4421837Y-1272776I66138J-4826D01*
G01X4422863Y-1272814D01*
G01X4551294Y-1401245D01*
G01X4478095Y-1518541D02*
G03X4443790Y-1504332I-34305J-34305D01*
G01X4395410Y-1504332D01*
G03X4361105Y-1518541I0J-48514D01*
G01X4343200Y-1536446D01*
G01X4294887Y-1536446D01*
G01X4292479Y-1534527D01*
G03X4183106Y-1584960I-43059J-50433D01*
G03X4292479Y-1635393I66314J0D01*
G01X4294887Y-1633474D01*
G01X4353974Y-1633474D01*
G03X4397596Y-1686503I65626J9528D01*
G03X4464810Y-1672460I22004J62557D01*
G01X4736382Y-1672460D01*
G03X4770687Y-1658250I0J48514D01*
G01X4955317Y-1473620D01*
G01X4958377Y-1473274D01*
G03X5000054Y-1360274I-5214J66109D01*
G03X4887054Y-1401951I-46891J-46891D01*
G01X4886708Y-1405010D01*
G01X4716287Y-1575432D01*
G01X4689046Y-1575432D01*
G01X4792999Y-1471478D01*
G01X4796059Y-1471133D01*
G03X4837736Y-1358133I-5214J66109D01*
G03X4724736Y-1399810I-46891J-46891D01*
G01X4724390Y-1402869D01*
G01X4603513Y-1523746D01*
G01X4483300Y-1523746D01*
G01X4478095Y-1518541D01*
G04 Copper End*

G04 TearDrop Start*
G36*
G01X4932781Y-1445507D02*
G01X4914820Y-1427547D01*
G01X4916702Y-1425342D01*
G01X4918282Y-1422849D01*
G01X4920630Y-1417240D01*
G01X4922049Y-1411212D01*
G01X4922722Y-1405255D01*
G01X4955073Y-1437605D01*
G01X4949116Y-1438278D01*
G01X4943088Y-1439697D01*
G01X4937479Y-1442046D01*
G01X4934986Y-1443626D01*
G01X4932781Y-1445507D01*
G37*
G36*
G01X4770463Y-1443366D02*
G01X4752503Y-1425406D01*
G01X4754384Y-1423201D01*
G01X4755964Y-1420707D01*
G01X4758312Y-1415099D01*
G01X4759731Y-1409071D01*
G01X4760405Y-1403114D01*
G01X4792755Y-1435464D01*
G01X4786798Y-1436137D01*
G01X4780770Y-1437556D01*
G01X4775161Y-1439905D01*
G01X4772668Y-1441485D01*
G01X4770463Y-1443366D01*
G37*
G36*
G01X4290944Y-1572260D02*
G01X4290944Y-1597660D01*
G01X4288055Y-1597889D01*
G01X4285174Y-1598535D01*
G01X4279548Y-1600840D01*
G01X4274282Y-1604099D01*
G01X4269594Y-1607835D01*
G01X4269594Y-1562085D01*
G01X4274282Y-1565821D01*
G01X4279548Y-1569080D01*
G01X4285174Y-1571385D01*
G01X4288055Y-1572031D01*
G01X4290944Y-1572260D01*
G37*
G36*
G01X4458518Y-1221900D02*
G01X4444726Y-1244028D01*
G01X4442515Y-1242177D01*
G01X4439929Y-1240607D01*
G01X4433996Y-1238300D01*
G01X4427654Y-1237083D01*
G01X4421628Y-1236933D01*
G01X4449540Y-1200683D01*
G01X4450796Y-1206433D01*
G01X4452531Y-1212088D01*
G01X4455015Y-1217345D01*
G01X4458518Y-1221900D01*
G37*
G36*
G01X4579406Y-1378708D02*
G01X4597366Y-1360748D01*
G01X4599571Y-1362629D01*
G01X4602064Y-1364209D01*
G01X4607673Y-1366558D01*
G01X4613701Y-1367977D01*
G01X4619658Y-1368650D01*
G01X4587308Y-1401000D01*
G01X4586635Y-1395043D01*
G01X4585216Y-1389015D01*
G01X4582867Y-1383406D01*
G01X4581287Y-1380913D01*
G01X4579406Y-1378708D01*
G37*
G04 TearDrop End*

G04 Pad Start*
G54D11*
G01X3644900Y-393700D03*
G54D12*
G01X3644900Y-647700D03*
G54D11*
G01X5359400Y-393700D03*
G54D12*
G01X5359400Y-647700D03*
G54D11*
G01X3644900Y-1447800D03*
G54D12*
G01X3644900Y-1701800D03*
G54D11*
G01X5359400Y-1447800D03*
G54D12*
G01X5359400Y-1701800D03*
G04 Pad End*

G04 Via Start*
G54D13*
G01X4953163Y-1407165D03*
G01X4419600Y-1623946D03*
G01X4790845Y-1405024D03*
G01X4249420Y-1584960D03*
G01X5146040Y-1089660D03*
G01X3909060Y-1153160D03*
G01X3655314Y-1081786D03*
G01X3756914Y-1589786D03*
G01X3858514Y-370586D03*
G01X3858514Y-1691386D03*
G01X3960114Y-370586D03*
G01X3960114Y-776986D03*
G01X3960114Y-1691386D03*
G01X4061714Y-776986D03*
G01X4061714Y-370586D03*
G01X4061714Y-1691386D03*
G01X4061714Y-1589786D03*
G01X4061714Y-1488186D03*
G01X4163314Y-980186D03*
G01X4163314Y-878586D03*
G01X4163314Y-776986D03*
G01X4163314Y-675386D03*
G01X4163314Y-573786D03*
G01X4163314Y-472186D03*
G01X4163314Y-370586D03*
G01X4163314Y-1691386D03*
G01X4264914Y-776986D03*
G01X4264914Y-675386D03*
G01X4264914Y-1691386D03*
G01X4366514Y-776986D03*
G01X4366514Y-675386D03*
G01X4468114Y-776986D03*
G01X4468114Y-675386D03*
G01X4569714Y-776986D03*
G01X4569714Y-675386D03*
G01X4569714Y-1691386D03*
G01X4671314Y-878586D03*
G01X4671314Y-776986D03*
G01X4671314Y-675386D03*
G01X4671314Y-1691386D03*
G01X4772914Y-878586D03*
G01X4772914Y-776986D03*
G01X4772914Y-675386D03*
G01X4772914Y-573786D03*
G01X4772914Y-1691386D03*
G01X4874514Y-878586D03*
G01X4874514Y-776986D03*
G01X4874514Y-1691386D03*
G01X4874514Y-1589786D03*
G01X4976114Y-878586D03*
G01X4976114Y-776986D03*
G01X4976114Y-1691386D03*
G01X4976114Y-1589786D03*
G01X5077714Y-776986D03*
G01X5077714Y-1691386D03*
G01X5077714Y-1589786D03*
G01X5179314Y-1691386D03*
G01X5179314Y-1589786D03*
G01X5179314Y-1488186D03*
G01X5179314Y-1386586D03*
G01X5280914Y-1284986D03*
G01X5382514Y-1284986D03*
G01X5382514Y-1183386D03*
G01X5382514Y-1081786D03*
G01X5382514Y-980186D03*
G01X5382514Y-878586D03*
G01X4419600Y-1206500D03*
G01X4617748Y-1399090D03*
G01X4520436Y-1412653D03*
G01X4422010Y-1412654D03*
G04 Via End*

G04 Track Start*
G54D14*
G01X4623608Y-1572260D02*
G01X4790845Y-1405024D01*
G01X4395410Y-1552846D02*
G01X4443790Y-1552846D01*
G01X4463205Y-1572260D01*
G01X4623608Y-1572260D01*
G01X4249420Y-1584960D02*
G01X4363295Y-1584960D01*
G01X4395410Y-1552846D01*
G01X4953163Y-1407165D02*
G01X4736382Y-1623946D01*
G01X4419600Y-1623946D01*
G01X4419600Y-1206500D02*
G01X4425158Y-1206500D01*
G01X4617748Y-1399090D01*
G01X5082540Y-1153160D02*
G01X5146040Y-1089660D01*
G01X3909060Y-1153160D02*
G01X4390350Y-1153160D01*
G01X4395410Y-1148100D01*
G01X4443790Y-1148100D01*
G01X4448850Y-1153160D01*
G01X5082540Y-1153160D01*
G04 Track End*

M02*

