G04 Layer: TopSilkscreenLayer*
G04 EasyEDA Pro v2.2.37.7, 2025-06-16 05:36:05*
G04 Gerber Generator version 0.3*
G04 Scale: 100 percent, Rotated: No, Reflected: No*
G04 Dimensions in millimeters*
G04 Leading zeros omitted, absolute positions, 4 integers and 5 decimals*
%FSLAX45Y45*%
%MOMM*%
%ADD10C,0.1524*%
%ADD11C,0.254*%
%ADD12C,0.15199*%
%ADD13C,0.127*%
%ADD14C,0.15001*%
%ADD15C,0.3033*%
%ADD16C,0.3*%
G75*


G04 Text Start*
G54D10*
G01X3914902Y-1737360D02*
G01X3911854Y-1731010D01*
G01X3905504Y-1724914D01*
G01X3899408Y-1721866D01*
G01X3886962Y-1721866D01*
G01X3880866Y-1724914D01*
G01X3874516Y-1731010D01*
G01X3871468Y-1737360D01*
G01X3868420Y-1746504D01*
G01X3868420Y-1761998D01*
G01X3871468Y-1771396D01*
G01X3874516Y-1777492D01*
G01X3880866Y-1783842D01*
G01X3886962Y-1786890D01*
G01X3899408Y-1786890D01*
G01X3905504Y-1783842D01*
G01X3911854Y-1777492D01*
G01X3914902Y-1771396D01*
G01X3945128Y-1734312D02*
G01X3951224Y-1731010D01*
G01X3960368Y-1721866D01*
G01X3960368Y-1786890D01*
G01X4130802Y-1623060D02*
G01X4127754Y-1616710D01*
G01X4121404Y-1610614D01*
G01X4115308Y-1607566D01*
G01X4102862Y-1607566D01*
G01X4096766Y-1610614D01*
G01X4090416Y-1616710D01*
G01X4087368Y-1623060D01*
G01X4084320Y-1632204D01*
G01X4084320Y-1647698D01*
G01X4087368Y-1657096D01*
G01X4090416Y-1663192D01*
G01X4096766Y-1669542D01*
G01X4102862Y-1672590D01*
G01X4115308Y-1672590D01*
G01X4121404Y-1669542D01*
G01X4127754Y-1663192D01*
G01X4130802Y-1657096D01*
G01X4164076Y-1623060D02*
G01X4164076Y-1620012D01*
G01X4167124Y-1613662D01*
G01X4170172Y-1610614D01*
G01X4176268Y-1607566D01*
G01X4188714Y-1607566D01*
G01X4195064Y-1610614D01*
G01X4198112Y-1613662D01*
G01X4201160Y-1620012D01*
G01X4201160Y-1626108D01*
G01X4198112Y-1632204D01*
G01X4191762Y-1641602D01*
G01X4161028Y-1672590D01*
G01X4204208Y-1672590D01*
G01X4880102Y-772160D02*
G01X4877054Y-765810D01*
G01X4870704Y-759714D01*
G01X4864608Y-756666D01*
G01X4852162Y-756666D01*
G01X4846066Y-759714D01*
G01X4839716Y-765810D01*
G01X4836668Y-772160D01*
G01X4833620Y-781304D01*
G01X4833620Y-796798D01*
G01X4836668Y-806196D01*
G01X4839716Y-812292D01*
G01X4846066Y-818642D01*
G01X4852162Y-821690D01*
G01X4864608Y-821690D01*
G01X4870704Y-818642D01*
G01X4877054Y-812292D01*
G01X4880102Y-806196D01*
G01X4916424Y-756666D02*
G01X4950460Y-756666D01*
G01X4931918Y-781304D01*
G01X4941062Y-781304D01*
G01X4947412Y-784352D01*
G01X4950460Y-787654D01*
G01X4953508Y-796798D01*
G01X4953508Y-803148D01*
G01X4950460Y-812292D01*
G01X4944364Y-818642D01*
G01X4934966Y-821690D01*
G01X4925568Y-821690D01*
G01X4916424Y-818642D01*
G01X4913376Y-815340D01*
G01X4910328Y-809244D01*
G01X5084064Y-771398D02*
G01X5081016Y-765048D01*
G01X5074666Y-758952D01*
G01X5068570Y-755904D01*
G01X5056124Y-755904D01*
G01X5050028Y-758952D01*
G01X5043678Y-765048D01*
G01X5040630Y-771398D01*
G01X5037582Y-780542D01*
G01X5037582Y-796036D01*
G01X5040630Y-805434D01*
G01X5043678Y-811530D01*
G01X5050028Y-817880D01*
G01X5056124Y-820928D01*
G01X5068570Y-820928D01*
G01X5074666Y-817880D01*
G01X5081016Y-811530D01*
G01X5084064Y-805434D01*
G01X5145024Y-755904D02*
G01X5114290Y-799084D01*
G01X5160518Y-799084D01*
G01X5145024Y-755904D02*
G01X5145024Y-820928D01*
G01X4689602Y-1191260D02*
G01X4686554Y-1184910D01*
G01X4680204Y-1178814D01*
G01X4674108Y-1175766D01*
G01X4661662Y-1175766D01*
G01X4655566Y-1178814D01*
G01X4649216Y-1184910D01*
G01X4646168Y-1191260D01*
G01X4643120Y-1200404D01*
G01X4643120Y-1215898D01*
G01X4646168Y-1225296D01*
G01X4649216Y-1231392D01*
G01X4655566Y-1237742D01*
G01X4661662Y-1240790D01*
G01X4674108Y-1240790D01*
G01X4680204Y-1237742D01*
G01X4686554Y-1231392D01*
G01X4689602Y-1225296D01*
G01X4756912Y-1175766D02*
G01X4725924Y-1175766D01*
G01X4722876Y-1203452D01*
G01X4725924Y-1200404D01*
G01X4735068Y-1197356D01*
G01X4744466Y-1197356D01*
G01X4753864Y-1200404D01*
G01X4759960Y-1206754D01*
G01X4763008Y-1215898D01*
G01X4763008Y-1222248D01*
G01X4759960Y-1231392D01*
G01X4753864Y-1237742D01*
G01X4744466Y-1240790D01*
G01X4735068Y-1240790D01*
G01X4725924Y-1237742D01*
G01X4722876Y-1234440D01*
G01X4719828Y-1228344D01*
G01X5032502Y-886460D02*
G01X5029454Y-880110D01*
G01X5023104Y-874014D01*
G01X5017008Y-870966D01*
G01X5004562Y-870966D01*
G01X4998466Y-874014D01*
G01X4992116Y-880110D01*
G01X4989068Y-886460D01*
G01X4986020Y-895604D01*
G01X4986020Y-911098D01*
G01X4989068Y-920496D01*
G01X4992116Y-926592D01*
G01X4998466Y-932942D01*
G01X5004562Y-935990D01*
G01X5017008Y-935990D01*
G01X5023104Y-932942D01*
G01X5029454Y-926592D01*
G01X5032502Y-920496D01*
G01X5099812Y-880110D02*
G01X5096764Y-874014D01*
G01X5087366Y-870966D01*
G01X5081270Y-870966D01*
G01X5071872Y-874014D01*
G01X5065776Y-883412D01*
G01X5062728Y-898652D01*
G01X5062728Y-914146D01*
G01X5065776Y-926592D01*
G01X5071872Y-932942D01*
G01X5081270Y-935990D01*
G01X5084318Y-935990D01*
G01X5093462Y-932942D01*
G01X5099812Y-926592D01*
G01X5102860Y-917448D01*
G01X5102860Y-914146D01*
G01X5099812Y-905002D01*
G01X5093462Y-898652D01*
G01X5084318Y-895604D01*
G01X5081270Y-895604D01*
G01X5071872Y-898652D01*
G01X5065776Y-905002D01*
G01X5062728Y-914146D01*
G01X3873500Y-357886D02*
G01X3873500Y-422910D01*
G01X3873500Y-357886D02*
G01X3895090Y-357886D01*
G01X3904488Y-360934D01*
G01X3910584Y-367030D01*
G01X3913632Y-373380D01*
G01X3916934Y-382524D01*
G01X3916934Y-398018D01*
G01X3913632Y-407416D01*
G01X3910584Y-413512D01*
G01X3904488Y-419862D01*
G01X3895090Y-422910D01*
G01X3873500Y-422910D01*
G01X3947160Y-370332D02*
G01X3953256Y-367030D01*
G01X3962400Y-357886D01*
G01X3962400Y-422910D01*
G01X3580130Y-1014476D02*
G01X3580130Y-1079500D01*
G01X3580130Y-1014476D02*
G01X3601720Y-1014476D01*
G01X3611118Y-1017524D01*
G01X3617214Y-1023620D01*
G01X3620262Y-1029970D01*
G01X3623564Y-1039114D01*
G01X3623564Y-1054608D01*
G01X3620262Y-1064006D01*
G01X3617214Y-1070102D01*
G01X3611118Y-1076452D01*
G01X3601720Y-1079500D01*
G01X3580130Y-1079500D01*
G01X3656838Y-1029970D02*
G01X3656838Y-1026922D01*
G01X3659886Y-1020572D01*
G01X3662934Y-1017524D01*
G01X3669030Y-1014476D01*
G01X3681476Y-1014476D01*
G01X3687826Y-1017524D01*
G01X3690874Y-1020572D01*
G01X3693922Y-1026922D01*
G01X3693922Y-1033018D01*
G01X3690874Y-1039114D01*
G01X3684524Y-1048512D01*
G01X3653790Y-1079500D01*
G01X3696970Y-1079500D01*
G01X4389120Y-705866D02*
G01X4389120Y-770890D01*
G01X4389120Y-770890D02*
G01X4426204Y-770890D01*
G01X4456430Y-718312D02*
G01X4462526Y-715010D01*
G01X4471670Y-705866D01*
G01X4471670Y-770890D01*
G01X5176520Y-858266D02*
G01X5176520Y-923290D01*
G01X5176520Y-858266D02*
G01X5204460Y-858266D01*
G01X5213604Y-861314D01*
G01X5216652Y-864362D01*
G01X5219954Y-870712D01*
G01X5219954Y-876808D01*
G01X5216652Y-882904D01*
G01X5213604Y-885952D01*
G01X5204460Y-889254D01*
G01X5176520Y-889254D01*
G01X5198110Y-889254D02*
G01X5219954Y-923290D01*
G01X5250180Y-870712D02*
G01X5256276Y-867410D01*
G01X5265420Y-858266D01*
G01X5265420Y-923290D01*
G01X4986020Y-1569466D02*
G01X4986020Y-1634490D01*
G01X4986020Y-1569466D02*
G01X5013960Y-1569466D01*
G01X5023104Y-1572514D01*
G01X5026152Y-1575562D01*
G01X5029454Y-1581912D01*
G01X5029454Y-1588008D01*
G01X5026152Y-1594104D01*
G01X5023104Y-1597152D01*
G01X5013960Y-1600454D01*
G01X4986020Y-1600454D01*
G01X5007610Y-1600454D02*
G01X5029454Y-1634490D01*
G01X5062728Y-1584960D02*
G01X5062728Y-1581912D01*
G01X5065776Y-1575562D01*
G01X5068824Y-1572514D01*
G01X5074920Y-1569466D01*
G01X5087366Y-1569466D01*
G01X5093716Y-1572514D01*
G01X5096764Y-1575562D01*
G01X5099812Y-1581912D01*
G01X5099812Y-1588008D01*
G01X5096764Y-1594104D01*
G01X5090414Y-1603502D01*
G01X5059680Y-1634490D01*
G01X5102860Y-1634490D01*
G01X4808220Y-870966D02*
G01X4808220Y-935990D01*
G01X4808220Y-870966D02*
G01X4836160Y-870966D01*
G01X4845304Y-874014D01*
G01X4848352Y-877062D01*
G01X4851654Y-883412D01*
G01X4851654Y-889508D01*
G01X4848352Y-895604D01*
G01X4845304Y-898652D01*
G01X4836160Y-901954D01*
G01X4808220Y-901954D01*
G01X4829810Y-901954D02*
G01X4851654Y-935990D01*
G01X4887976Y-870966D02*
G01X4922012Y-870966D01*
G01X4903470Y-895604D01*
G01X4912614Y-895604D01*
G01X4918964Y-898652D01*
G01X4922012Y-901954D01*
G01X4925060Y-911098D01*
G01X4925060Y-917448D01*
G01X4922012Y-926592D01*
G01X4915916Y-932942D01*
G01X4906518Y-935990D01*
G01X4897120Y-935990D01*
G01X4887976Y-932942D01*
G01X4884928Y-929640D01*
G01X4881880Y-923544D01*
G01X4808220Y-1569466D02*
G01X4808220Y-1634490D01*
G01X4808220Y-1569466D02*
G01X4836160Y-1569466D01*
G01X4845304Y-1572514D01*
G01X4848352Y-1575562D01*
G01X4851654Y-1581912D01*
G01X4851654Y-1588008D01*
G01X4848352Y-1594104D01*
G01X4845304Y-1597152D01*
G01X4836160Y-1600454D01*
G01X4808220Y-1600454D01*
G01X4829810Y-1600454D02*
G01X4851654Y-1634490D01*
G01X4912614Y-1569466D02*
G01X4881880Y-1612646D01*
G01X4928108Y-1612646D01*
G01X4912614Y-1569466D02*
G01X4912614Y-1634490D01*
G01X4373880Y-1378966D02*
G01X4373880Y-1425448D01*
G01X4376928Y-1434592D01*
G01X4383278Y-1440942D01*
G01X4392422Y-1443990D01*
G01X4398772Y-1443990D01*
G01X4407916Y-1440942D01*
G01X4414012Y-1434592D01*
G01X4417314Y-1425448D01*
G01X4417314Y-1378966D01*
G01X4447540Y-1391412D02*
G01X4453636Y-1388110D01*
G01X4462780Y-1378966D01*
G01X4462780Y-1443990D01*
G04 Text End*

G04 PolygonModel Start*
G01X3802339Y-1181280D02*
G01X3802339Y-1329779D01*
G01X4020861Y-1329779D02*
G01X4020861Y-1181280D01*
G01X4005621Y-1166040D02*
G01X3817579Y-1166040D01*
G01X3802339Y-1663520D02*
G01X3802339Y-1515021D01*
G01X4020861Y-1515021D02*
G01X4020861Y-1663520D01*
G01X4005621Y-1678760D02*
G01X3817579Y-1678760D01*
G01X4020861Y-1181280D02*
G03X4005621Y-1166040I-15240J0D01*
G01X3817579Y-1166040D02*
G03X3802339Y-1181280I0J-15240D01*
G01X4020861Y-1663520D02*
G02X4005621Y-1678760I-15240J0D01*
G01X3817579Y-1678760D02*
G02X3802339Y-1663520I0J15240D01*
G54D11*
G01X4221014Y-1433032D02*
G01X4221014Y-1513030D01*
G01X4221060Y-1376987D02*
G01X4221060Y-1296990D01*
G01X4079046Y-1433032D02*
G01X4079046Y-1513030D01*
G01X4079094Y-1376987D02*
G01X4079094Y-1296990D01*
G01X4190031Y-1544005D02*
G01X4110026Y-1544005D01*
G01X4110079Y-1266012D02*
G01X4190082Y-1266012D01*
G01X4079094Y-1296995D02*
G02X4110079Y-1266012I30983J0D01*
G01X4190077Y-1266012D02*
G02X4221060Y-1296995I0J-30983D01*
G01X4221014Y-1513025D02*
G02X4190031Y-1544005I-30983J3D01*
G01X4110034Y-1544005D02*
G02X4079046Y-1513025I-5J30983D01*
G54D10*
G01X4978260Y-703420D02*
G01X4978260Y-562419D01*
G01X4797539Y-562419D02*
G01X4797539Y-703420D01*
G01X4812779Y-718660D02*
G01X4963020Y-718660D01*
G01X4978260Y-341180D02*
G01X4978260Y-482181D01*
G01X4797539Y-482181D02*
G01X4797539Y-341180D01*
G01X4812779Y-325940D02*
G01X4963020Y-325940D01*
G01X4797539Y-703420D02*
G03X4812779Y-718660I15240J0D01*
G01X4963020Y-718660D02*
G03X4978260Y-703420I0J15240D01*
G01X4797539Y-341180D02*
G02X4812779Y-325940I15240J0D01*
G01X4963020Y-325940D02*
G02X4978260Y-341180I0J-15240D01*
G01X5194160Y-703420D02*
G01X5194160Y-562419D01*
G01X5013439Y-562419D02*
G01X5013439Y-703420D01*
G01X5028679Y-718660D02*
G01X5178920Y-718660D01*
G01X5194160Y-341180D02*
G01X5194160Y-482181D01*
G01X5013439Y-482181D02*
G01X5013439Y-341180D01*
G01X5028679Y-325940D02*
G01X5178920Y-325940D01*
G01X5013439Y-703420D02*
G03X5028679Y-718660I15240J0D01*
G01X5178920Y-718660D02*
G03X5194160Y-703420I0J15240D01*
G01X5013439Y-341180D02*
G02X5028679Y-325940I15240J0D01*
G01X5178920Y-325940D02*
G02X5194160Y-341180I0J-15240D01*
G54D11*
G01X4628043Y-1381681D02*
G01X4628043Y-1301684D01*
G01X4627997Y-1437726D02*
G01X4627997Y-1517724D01*
G01X4770011Y-1381681D02*
G01X4770011Y-1301684D01*
G01X4769963Y-1437726D02*
G01X4769963Y-1517724D01*
G01X4659025Y-1270709D02*
G01X4739030Y-1270709D01*
G01X4738977Y-1548701D02*
G01X4658975Y-1548701D01*
G01X4769963Y-1517719D02*
G02X4738977Y-1548701I-30983J0D01*
G01X4658980Y-1548701D02*
G02X4627997Y-1517719I0J30983D01*
G01X4628043Y-1301689D02*
G02X4659025Y-1270709I30983J-3D01*
G01X4739023Y-1270709D02*
G02X4770011Y-1301689I5J-30983D01*
G01X5112857Y-1120219D02*
G01X5112857Y-1200216D01*
G01X5112903Y-1064174D02*
G01X5112903Y-984176D01*
G01X4970889Y-1120219D02*
G01X4970889Y-1200216D01*
G01X4970937Y-1064174D02*
G01X4970937Y-984176D01*
G01X5081875Y-1231191D02*
G01X5001870Y-1231191D01*
G01X5001923Y-953198D02*
G01X5081925Y-953198D01*
G01X4970937Y-984181D02*
G02X5001923Y-953198I30983J0D01*
G01X5081920Y-953198D02*
G02X5112903Y-984181I0J-30983D01*
G01X5112857Y-1200211D02*
G02X5081875Y-1231191I-30983J3D01*
G01X5001877Y-1231191D02*
G02X4970889Y-1200211I-5J30983D01*
G54D12*
G01X4051899Y-888101D02*
G01X3792200Y-888101D01*
G54D13*
G01X3923299Y-732262D02*
G01X3923299Y-859262D01*
G01X3923299Y-757662D02*
G01X3885199Y-757662D01*
G01X3885199Y-757662D02*
G01X3923299Y-833862D01*
G01X3923299Y-833862D02*
G01X3885199Y-833862D01*
G01X3923299Y-757662D02*
G01X3961399Y-757662D01*
G01X3961399Y-757662D02*
G01X3923299Y-833862D01*
G01X3923299Y-833862D02*
G01X3961399Y-833862D01*
G54D12*
G01X3826401Y-570413D02*
G01X3793401Y-570413D01*
G01X3793401Y-570413D02*
G01X3793401Y-1005111D01*
G01X3793401Y-1005111D02*
G01X3824501Y-1005111D01*
G01X4017300Y-571414D02*
G01X4053101Y-571414D01*
G01X4053101Y-571414D02*
G01X4053101Y-1006013D01*
G01X4053101Y-1006013D02*
G01X4021999Y-1006013D01*
G54D10*
G01X3705598Y-1191781D02*
G01X3724897Y-1191781D01*
G01X3539749Y-1192276D02*
G01X3559048Y-1192276D01*
G01X3539579Y-916478D02*
G01X3558878Y-916478D01*
G54D14*
G01X3633846Y-1054100D02*
G01X3583046Y-1104900D01*
G01X3583046Y-1104900D02*
G01X3684646Y-1104900D01*
G01X3633846Y-1054100D02*
G01X3684646Y-1104900D01*
G01X3659246Y-1054100D02*
G01X3608446Y-1054100D01*
G01X3633846Y-1054100D02*
G01X3684646Y-1003300D01*
G01X3684646Y-1003300D02*
G01X3583046Y-1003300D01*
G01X3633846Y-1054100D02*
G01X3583046Y-1003300D01*
G01X3583046Y-1054100D02*
G01X3684646Y-1054100D01*
G01X3633846Y-1130300D02*
G01X3633846Y-977900D01*
G54D10*
G01X3724821Y-1191722D02*
G01X3724821Y-916478D01*
G01X3539579Y-1191722D02*
G01X3539579Y-916478D01*
G01X3724821Y-916478D02*
G01X3705522Y-916478D01*
G54D11*
G01X3517900Y-774700D02*
G01X3517900Y-266700D01*
G01X3771900Y-266700D01*
G01X3771900Y-774700D01*
G01X3517900Y-774700D01*
G01X5232400Y-774700D02*
G01X5232400Y-266700D01*
G01X5486400Y-266700D01*
G01X5486400Y-774700D01*
G01X5232400Y-774700D01*
G01X3517900Y-1828800D02*
G01X3517900Y-1320800D01*
G01X3771900Y-1320800D01*
G01X3771900Y-1828800D01*
G01X3517900Y-1828800D01*
G01X5232400Y-1828800D02*
G01X5232400Y-1320800D01*
G01X5486400Y-1320800D01*
G01X5486400Y-1828800D01*
G01X5232400Y-1828800D01*
G54D10*
G01X4236060Y-1094219D02*
G01X4094681Y-1094219D01*
G01X4094681Y-1094219D02*
G01X4094681Y-378981D01*
G01X4094681Y-378981D02*
G01X4236060Y-378981D01*
G01X4628540Y-1094219D02*
G01X4769919Y-1094219D01*
G01X4769919Y-1094219D02*
G01X4769919Y-378981D01*
G01X4769919Y-378981D02*
G01X4628540Y-378981D01*
G01X5284897Y-1048715D02*
G01X5284897Y-952828D01*
G01X5284897Y-952828D02*
G01X5152776Y-952828D01*
G01X5152776Y-952828D02*
G01X5152776Y-1048715D01*
G01X5284897Y-1133958D02*
G01X5284897Y-1229845D01*
G01X5284897Y-1229845D02*
G01X5152776Y-1229845D01*
G01X5152776Y-1229845D02*
G01X5152776Y-1133958D01*
G01X5107960Y-1367079D02*
G01X5107960Y-1271191D01*
G01X5107960Y-1271191D02*
G01X4975840Y-1271191D01*
G01X4975840Y-1271191D02*
G01X4975840Y-1367079D01*
G01X5107960Y-1452321D02*
G01X5107960Y-1548209D01*
G01X5107960Y-1548209D02*
G01X4975840Y-1548209D01*
G01X4975840Y-1548209D02*
G01X4975840Y-1452321D01*
G01X4930160Y-1051306D02*
G01X4930160Y-955418D01*
G01X4930160Y-955418D02*
G01X4798040Y-955418D01*
G01X4798040Y-955418D02*
G01X4798040Y-1051306D01*
G01X4930160Y-1136548D02*
G01X4930160Y-1232436D01*
G01X4930160Y-1232436D02*
G01X4798040Y-1232436D01*
G01X4798040Y-1232436D02*
G01X4798040Y-1136548D01*
G01X4931282Y-1362403D02*
G01X4931282Y-1266515D01*
G01X4931282Y-1266515D02*
G01X4799161Y-1266515D01*
G01X4799161Y-1266515D02*
G01X4799161Y-1362403D01*
G01X4931282Y-1447645D02*
G01X4931282Y-1543533D01*
G01X4931282Y-1543533D02*
G01X4799161Y-1543533D01*
G01X4799161Y-1543533D02*
G01X4799161Y-1447645D01*
G01X4265681Y-1323320D02*
G01X4265681Y-1501160D01*
G01X4573519Y-1323320D02*
G01X4573519Y-1501160D01*

G04 Circle Start*
G54D16*
G01X4571416Y-1282090D02*
G03X4601439Y-1282090I15011J0D01*
G03X4571416Y-1282090I-15011J0D01*
G04 Circle End*

M02*

